<svg width="371" height="144" viewBox="0 0 371 144" fill="none" xmlns="http://www.w3.org/2000/svg">
<rect y="21" width="211" height="123" rx="10" fill="#615CF5"/>
<rect y="21" width="211" height="123" rx="10" fill="url(#paint0_linear)"/>
<path d="M62.2005 123.417C57.0031 123.417 51.8451 122.512 46.7264 120.701C41.6865 118.811 37.0798 116.015 32.9061 112.314L42.9465 100.384C45.8602 102.746 49.0495 104.675 52.5144 106.172C55.9794 107.668 59.6018 108.416 63.3817 108.416C67.1616 108.416 69.9178 107.786 71.6503 106.526C73.3827 105.266 74.2489 103.652 74.2489 101.683C74.2489 100.344 73.9733 99.2418 73.4221 98.3755C72.8709 97.4305 72.0834 96.6037 71.0596 95.895C70.0359 95.1862 68.7759 94.5169 67.2797 93.8869C65.7835 93.2569 64.1298 92.5482 62.3186 91.7607L52.3963 87.5083C50.2701 86.7208 48.1833 85.6971 46.1358 84.4371C44.1671 83.1771 42.4347 81.7203 40.9384 80.0666C39.4422 78.3341 38.2216 76.3654 37.2766 74.1604C36.4104 71.8767 35.9773 69.3174 35.9773 66.4825C35.9773 63.3326 36.6467 60.3795 37.9854 57.6233C39.4028 54.7884 41.3322 52.3472 43.7734 50.2997C46.2933 48.1735 49.2858 46.5198 52.7507 45.3386C56.2156 44.1574 60.0349 43.5667 64.2085 43.5667C68.9334 43.5667 73.5008 44.433 77.9107 46.1654C82.3206 47.8979 86.2974 50.4178 89.8411 53.7253L80.9819 64.7107C78.3045 62.7419 75.627 61.2457 72.9496 60.222C70.2722 59.1195 67.0435 58.5683 63.2636 58.5683C60.3499 58.5683 57.9874 59.1589 56.1762 60.3401C54.4438 61.5213 53.5775 63.2538 53.5775 65.5375C53.5775 67.8212 54.7194 69.593 57.0031 70.853C59.3655 72.0342 62.4367 73.2942 66.2166 74.6329L75.5483 78.6491C80.6669 80.539 84.6831 83.1377 87.5968 86.4452C90.5892 89.7526 92.0854 94.1231 92.0854 99.5568C92.0854 102.785 91.4161 105.857 90.0773 108.77C88.7386 111.605 86.8093 114.125 84.2893 116.33C81.7694 118.456 78.6588 120.189 74.9577 121.528C71.2565 122.787 67.0041 123.417 62.2005 123.417ZM112.593 122V44.9842H139.879C144.053 44.9842 147.951 45.4173 151.573 46.2836C155.274 47.071 158.463 48.4491 161.141 50.4178C163.897 52.3078 166.063 54.8671 167.638 58.0958C169.213 61.2457 170 65.1438 170 69.7899C170 74.2786 169.173 78.1766 167.519 81.484C165.945 84.7915 163.779 87.5083 161.023 89.6345C158.267 91.7607 155.077 93.3356 151.455 94.3594C147.832 95.3831 143.974 95.895 139.879 95.895H129.957V122H112.593ZM129.957 82.0746H138.816C148.266 82.0746 152.99 77.9797 152.99 69.7899C152.99 65.7738 151.77 62.9388 149.329 61.2851C146.966 59.6314 143.462 58.8045 138.816 58.8045H129.957V82.0746Z" fill="white"/>
<path d="M196 132.303V31.9043C196 28.2802 198.938 25.3423 202.562 25.3423H239.788C242.304 25.3423 244.599 23.9034 245.695 21.6384L251.954 8.70386C253.05 6.43885 255.344 5 257.86 5H304.63C307.209 5 309.549 6.51072 310.61 8.86118L316.31 21.4811C317.371 23.8315 319.711 25.3423 322.29 25.3423H358.738C362.362 25.3423 365.3 28.2802 365.3 31.9043V132.303C365.3 135.927 362.362 138.865 358.738 138.865H202.562C198.938 138.865 196 135.927 196 132.303Z" fill="#615CF5" stroke="white" stroke-width="9.84303"/>
<path d="M246.166 119.989L259.204 37H278.206L264.752 119.989H246.166Z" fill="white"/>
<path d="M282.933 119.989L295.971 37H314.973L301.519 119.989H282.933Z" fill="white"/>
<path d="M323.903 69.1714H239.6L242.883 50.1312H327.054L323.903 69.1714Z" fill="white"/>
<path d="M318.125 106.201H233.822L237.105 87.1612H321.276L318.125 106.201Z" fill="white"/>
<rect x="213.061" y="8.93719" width="24.9357" height="6.56202" fill="white"/>
<defs>
<linearGradient id="paint0_linear" x1="-9.42475e-07" y1="82" x2="193" y2="82" gradientUnits="userSpaceOnUse">
<stop stop-color="#4441A3"/>
<stop offset="1" stop-color="#615CF5"/>
</linearGradient>
</defs>
</svg>
