<svg width="370" height="144" viewBox="0 0 370 144" fill="none" xmlns="http://www.w3.org/2000/svg">
<rect y="21" width="211" height="123" rx="10" fill="#615CF5"/>
<rect y="21" width="211" height="123" rx="10" fill="url(#paint0_linear)"/>
<path d="M61.2005 123.417C56.0031 123.417 50.8451 122.512 45.7264 120.701C40.6865 118.811 36.0798 116.015 31.9061 112.314L41.9465 100.384C44.8602 102.746 48.0495 104.675 51.5144 106.172C54.9794 107.668 58.6018 108.416 62.3817 108.416C66.1616 108.416 68.9178 107.786 70.6503 106.526C72.3827 105.266 73.2489 103.652 73.2489 101.683C73.2489 100.344 72.9733 99.2418 72.4221 98.3755C71.8709 97.4305 71.0834 96.6037 70.0596 95.895C69.0359 95.1862 67.7759 94.5169 66.2797 93.8869C64.7835 93.2569 63.1298 92.5482 61.3186 91.7607L51.3963 87.5083C49.2701 86.7208 47.1833 85.6971 45.1358 84.4371C43.1671 83.1771 41.4347 81.7203 39.9384 80.0666C38.4422 78.3341 37.2216 76.3654 36.2766 74.1604C35.4104 71.8767 34.9773 69.3174 34.9773 66.4825C34.9773 63.3326 35.6467 60.3795 36.9854 57.6233C38.4028 54.7884 40.3322 52.3472 42.7734 50.2997C45.2933 48.1735 48.2858 46.5198 51.7507 45.3386C55.2156 44.1574 59.0349 43.5667 63.2085 43.5667C67.9334 43.5667 72.5008 44.433 76.9107 46.1654C81.3206 47.8979 85.2974 50.4178 88.8411 53.7253L79.9819 64.7107C77.3045 62.7419 74.627 61.2457 71.9496 60.222C69.2722 59.1195 66.0435 58.5683 62.2636 58.5683C59.3499 58.5683 56.9874 59.1589 55.1762 60.3401C53.4438 61.5213 52.5775 63.2538 52.5775 65.5375C52.5775 67.8212 53.7194 69.593 56.0031 70.853C58.3655 72.0342 61.4367 73.2942 65.2166 74.6329L74.5483 78.6491C79.6669 80.539 83.6831 83.1377 86.5968 86.4452C89.5892 89.7526 91.0854 94.1231 91.0854 99.5568C91.0854 102.785 90.4161 105.857 89.0773 108.77C87.7386 111.605 85.8093 114.125 83.2893 116.33C80.7694 118.456 77.6588 120.189 73.9577 121.528C70.2565 122.787 66.0041 123.417 61.2005 123.417ZM111.593 122V44.9842H138.879C143.053 44.9842 146.951 45.4173 150.573 46.2836C154.274 47.071 157.463 48.4491 160.141 50.4178C162.897 52.3078 165.063 54.8671 166.638 58.0958C168.213 61.2457 169 65.1438 169 69.7899C169 74.2786 168.173 78.1766 166.519 81.484C164.945 84.7915 162.779 87.5083 160.023 89.6345C157.267 91.7607 154.077 93.3356 150.455 94.3594C146.832 95.3831 142.974 95.895 138.879 95.895H128.957V122H111.593ZM128.957 82.0746H137.816C147.266 82.0746 151.99 77.9797 151.99 69.7899C151.99 65.7738 150.77 62.9388 148.329 61.2851C145.966 59.6314 142.462 58.8045 137.816 58.8045H128.957V82.0746Z" fill="white"/>
<path d="M195 132.303V31.9043C195 28.2802 197.938 25.3423 201.562 25.3423H238.788C241.304 25.3423 243.599 23.9034 244.695 21.6384L250.954 8.70386C252.05 6.43885 254.344 5 256.86 5H303.63C306.209 5 308.549 6.51072 309.61 8.86118L315.31 21.4811C316.371 23.8315 318.711 25.3423 321.29 25.3423H357.738C361.362 25.3423 364.3 28.2802 364.3 31.9043V132.303C364.3 135.927 361.362 138.865 357.738 138.865H201.562C197.938 138.865 195 135.927 195 132.303Z" fill="white" stroke="black" stroke-width="9.84303"/>
<path d="M245.166 119.989L258.204 37H277.206L263.752 119.989H245.166Z" fill="#615CF5"/>
<path d="M281.933 119.989L294.971 37H313.973L300.519 119.989H281.933Z" fill="#615CF5"/>
<path d="M322.903 69.1714H238.6L241.883 50.1312H326.054L322.903 69.1714Z" fill="#615CF5"/>
<path d="M317.125 106.201H232.822L236.105 87.1612H320.276L317.125 106.201Z" fill="#615CF5"/>
<rect x="212.061" y="8.93719" width="24.9357" height="6.56202" fill="black"/>
<defs>
<linearGradient id="paint0_linear" x1="-9.42475e-07" y1="82" x2="193" y2="82" gradientUnits="userSpaceOnUse">
<stop stop-color="#4441A3"/>
<stop offset="1" stop-color="#615CF5"/>
</linearGradient>
</defs>
</svg>
